<mxfile host="app.diagrams.net" modified="2023-02-03T01:27:13.835Z" agent="5.0 (Windows NT 10.0; Win64; x64) AppleWebKit/537.36 (KHTML, like Gecko) Chrome/109.0.0.0 Safari/537.36" etag="lX_6oD5DnAbiXtEfTZsf" version="20.8.13" type="github">
  <diagram name="Page-1" id="2SwK_Ge8CA8nD8OYH0nJ">
    <mxGraphModel dx="1509" dy="831" grid="1" gridSize="10" guides="1" tooltips="1" connect="1" arrows="1" fold="1" page="1" pageScale="1" pageWidth="850" pageHeight="1100" math="0" shadow="0">
      <root>
        <mxCell id="0" />
        <mxCell id="1" parent="0" />
        <mxCell id="7Dd9MZx4GV7fzuQqrnYb-1" value="&lt;font style=&quot;font-size: 15px;&quot; face=&quot;Consolas&quot;&gt;STATE MACHINE&lt;/font&gt;" style="text;html=1;strokeColor=none;fillColor=none;align=center;verticalAlign=middle;whiteSpace=wrap;rounded=0;" vertex="1" parent="1">
          <mxGeometry x="395" y="100" width="60" height="30" as="geometry" />
        </mxCell>
        <mxCell id="7Dd9MZx4GV7fzuQqrnYb-2" value="&lt;font face=&quot;Consolas&quot;&gt;r_en&lt;/font&gt;" style="text;html=1;align=center;verticalAlign=middle;resizable=0;points=[];autosize=1;strokeColor=none;fillColor=none;fontSize=15;" vertex="1" parent="1">
          <mxGeometry x="280" y="295" width="60" height="30" as="geometry" />
        </mxCell>
        <mxCell id="7Dd9MZx4GV7fzuQqrnYb-3" value="&lt;font face=&quot;Consolas&quot;&gt;y_en&lt;br&gt;&lt;/font&gt;" style="text;html=1;align=center;verticalAlign=middle;resizable=0;points=[];autosize=1;strokeColor=none;fillColor=none;fontSize=15;" vertex="1" parent="1">
          <mxGeometry x="400" y="310" width="60" height="30" as="geometry" />
        </mxCell>
        <mxCell id="7Dd9MZx4GV7fzuQqrnYb-4" value="&lt;font face=&quot;Consolas&quot;&gt;g_en&lt;br&gt;&lt;br&gt;&lt;/font&gt;" style="text;html=1;align=center;verticalAlign=middle;resizable=0;points=[];autosize=1;strokeColor=none;fillColor=none;fontSize=15;" vertex="1" parent="1">
          <mxGeometry x="510" y="290" width="60" height="50" as="geometry" />
        </mxCell>
        <mxCell id="7Dd9MZx4GV7fzuQqrnYb-5" value="&lt;font face=&quot;consolas&quot;&gt;stop&lt;/font&gt;" style="text;html=1;align=center;verticalAlign=middle;resizable=0;points=[];autosize=1;strokeColor=none;fillColor=none;fontSize=15;" vertex="1" parent="1">
          <mxGeometry x="480" y="175" width="60" height="30" as="geometry" />
        </mxCell>
        <mxCell id="7Dd9MZx4GV7fzuQqrnYb-6" value="&lt;font face=&quot;consolas&quot;&gt;go&lt;/font&gt;" style="text;html=1;align=center;verticalAlign=middle;resizable=0;points=[];autosize=1;strokeColor=none;fillColor=none;fontSize=15;" vertex="1" parent="1">
          <mxGeometry x="540" y="190" width="40" height="30" as="geometry" />
        </mxCell>
        <mxCell id="7Dd9MZx4GV7fzuQqrnYb-7" value="&lt;font face=&quot;consolas&quot;&gt;&lt;br&gt;&lt;br&gt;entry /&amp;nbsp;&lt;/font&gt;" style="rounded=1;whiteSpace=wrap;html=1;fontSize=15;strokeWidth=2;" vertex="1" parent="1">
          <mxGeometry x="120" y="400" width="160" height="80" as="geometry" />
        </mxCell>
        <mxCell id="7Dd9MZx4GV7fzuQqrnYb-10" value="" style="endArrow=none;html=1;rounded=0;fontSize=15;entryX=1;entryY=0.5;entryDx=0;entryDy=0;strokeWidth=2;" edge="1" parent="1" target="7Dd9MZx4GV7fzuQqrnYb-7">
          <mxGeometry width="50" height="50" relative="1" as="geometry">
            <mxPoint x="120" y="440" as="sourcePoint" />
            <mxPoint x="170" y="390" as="targetPoint" />
          </mxGeometry>
        </mxCell>
        <mxCell id="7Dd9MZx4GV7fzuQqrnYb-17" value="" style="endArrow=classic;html=1;rounded=0;strokeWidth=2;fontSize=15;" edge="1" parent="1">
          <mxGeometry width="50" height="50" relative="1" as="geometry">
            <mxPoint x="80" y="320" as="sourcePoint" />
            <mxPoint x="130" y="270" as="targetPoint" />
          </mxGeometry>
        </mxCell>
        <mxCell id="7Dd9MZx4GV7fzuQqrnYb-18" value="" style="endArrow=classic;html=1;rounded=0;strokeWidth=2;fontSize=15;" edge="1" parent="1">
          <mxGeometry width="50" height="50" relative="1" as="geometry">
            <mxPoint x="120" y="320" as="sourcePoint" />
            <mxPoint x="170" y="270" as="targetPoint" />
          </mxGeometry>
        </mxCell>
        <mxCell id="7Dd9MZx4GV7fzuQqrnYb-19" value="" style="endArrow=classic;html=1;rounded=0;strokeWidth=2;fontSize=15;" edge="1" parent="1">
          <mxGeometry width="50" height="50" relative="1" as="geometry">
            <mxPoint x="120" y="360" as="sourcePoint" />
            <mxPoint x="170" y="310" as="targetPoint" />
          </mxGeometry>
        </mxCell>
        <mxCell id="7Dd9MZx4GV7fzuQqrnYb-20" value="&lt;font face=&quot;consolas&quot;&gt;&lt;br&gt;&lt;br&gt;entry /&amp;nbsp;&lt;/font&gt;" style="rounded=1;whiteSpace=wrap;html=1;fontSize=15;strokeWidth=2;" vertex="1" parent="1">
          <mxGeometry x="320" y="400" width="160" height="80" as="geometry" />
        </mxCell>
        <mxCell id="7Dd9MZx4GV7fzuQqrnYb-21" value="" style="endArrow=none;html=1;rounded=0;fontSize=15;entryX=1;entryY=0.5;entryDx=0;entryDy=0;strokeWidth=2;" edge="1" parent="1" target="7Dd9MZx4GV7fzuQqrnYb-20">
          <mxGeometry width="50" height="50" relative="1" as="geometry">
            <mxPoint x="320" y="440" as="sourcePoint" />
            <mxPoint x="370" y="390" as="targetPoint" />
          </mxGeometry>
        </mxCell>
        <mxCell id="7Dd9MZx4GV7fzuQqrnYb-22" value="&lt;font face=&quot;consolas&quot;&gt;&lt;br&gt;&lt;br&gt;entry /&amp;nbsp;&lt;/font&gt;" style="rounded=1;whiteSpace=wrap;html=1;fontSize=15;strokeWidth=2;" vertex="1" parent="1">
          <mxGeometry x="520" y="400" width="160" height="80" as="geometry" />
        </mxCell>
        <mxCell id="7Dd9MZx4GV7fzuQqrnYb-23" value="" style="endArrow=none;html=1;rounded=0;fontSize=15;entryX=1;entryY=0.5;entryDx=0;entryDy=0;strokeWidth=2;" edge="1" parent="1" target="7Dd9MZx4GV7fzuQqrnYb-22">
          <mxGeometry width="50" height="50" relative="1" as="geometry">
            <mxPoint x="520" y="440" as="sourcePoint" />
            <mxPoint x="570" y="390" as="targetPoint" />
          </mxGeometry>
        </mxCell>
      </root>
    </mxGraphModel>
  </diagram>
</mxfile>
